<svg xmlns="http://www.w3.org/2000/svg" xmlns:xlink="http://www.w3.org/1999/xlink" version="1.1" x="0px" y="0px" viewBox="0 0 100 125" style="enable-background:new 0 0 100 100;" xml:space="preserve"><path d="M83.3,28.1c-2.2-2.2-5.1-3.4-8-3.4c-0.1-2.9-1.2-5.8-3.4-8c-4.6-4.6-12-4.6-16.5,0s-4.6,12,0,16.5c0.4,0.4,0.8,0.7,1.2,1  L34.2,56.6c-0.3-0.4-0.7-0.8-1-1.2c-4.6-4.6-12-4.6-16.5,0s-4.6,12,0,16.5c2.2,2.2,5.1,3.4,8,3.4c0.1,2.9,1.2,5.8,3.4,8  c4.6,4.6,12,4.6,16.5,0s4.6-12,0-16.5c-0.4-0.4-0.8-0.7-1.2-1l22.4-22.4c0.3,0.4,0.7,0.8,1,1.2c4.6,4.6,12,4.6,16.5,0  S87.9,32.7,83.3,28.1z"/><text x="0" y="115" fill="#000000" font-size="5px" font-weight="bold" font-family="'Helvetica Neue', Helvetica, Arial-Unicode, Arial, Sans-serif">Created by n.o.o.m.</text><text x="0" y="120" fill="#000000" font-size="5px" font-weight="bold" font-family="'Helvetica Neue', Helvetica, Arial-Unicode, Arial, Sans-serif">from the Noun Project</text></svg>