<svg xmlns="http://www.w3.org/2000/svg" data-name="Layer 1" viewBox="0 0 100 125" x="0px" y="0px"><title>Dogginess scale</title><circle cx="63.51" cy="46.33" r="5.62"/><circle cx="37.26" cy="46.33" r="5.62"/><path d="M23.69,78.25a16.87,16.87,0,0,0,26.74,1.36A16.87,16.87,0,0,0,77.1,78.25c12.11-.36,18.1-7,18.29-26.14-.25-24.34-16.25-37.47-44.52-37.65h-1C21.64,14.63,5.64,27.76,5.39,52,5.58,71.2,11.57,77.89,23.69,78.25ZM50.39,22c24.75,0,37.3,10.23,37.5,30.15-.09,8.55-1.48,13.69-3.77,16.21A6.86,6.86,0,0,1,80,70.45a16.85,16.85,0,0,0-.27-5.33l-1.28-6a3.75,3.75,0,1,0-7.34,1.56l1.28,6A9.37,9.37,0,0,1,54.16,71q0-.08,0-.17V67h2.63a3,3,0,0,0,3-3V58.71a3,3,0,0,0-3-3H44a3,3,0,0,0-3,3V64a3,3,0,0,0,3,3h2.63v4.12a9.37,9.37,0,0,1-18.23-4.35l1.28-6a3.75,3.75,0,1,0-7.34-1.56l-1.28,6a16.85,16.85,0,0,0-.28,5.3,6.87,6.87,0,0,1-4.14-2.15C14.37,65.79,13,60.66,12.89,52,13.09,32.18,25.65,22,50.39,22Z"/><text x="0" y="115" fill="#000000" font-size="5px" font-weight="bold" font-family="'Helvetica Neue', Helvetica, Arial-Unicode, Arial, Sans-serif">Created by Pawel Rak</text><text x="0" y="120" fill="#000000" font-size="5px" font-weight="bold" font-family="'Helvetica Neue', Helvetica, Arial-Unicode, Arial, Sans-serif">from the Noun Project</text></svg>
