<svg xmlns="http://www.w3.org/2000/svg" viewBox="0 0 32 40" x="0px" y="0px"><title>Save,</title><g data-name="Layer 78"><path d="M25,2H7A1,1,0,0,0,6,3V29a1,1,0,0,0,.62.92,1,1,0,0,0,1.09-.21L16,21.41l8.29,8.3A1,1,0,0,0,25,30a.84.84,0,0,0,.38-.08A1,1,0,0,0,26,29V3A1,1,0,0,0,25,2ZM24,26.59l-7.29-7.3a1,1,0,0,0-1.42,0L8,26.59V4H24Z"/></g><text x="0" y="47" fill="#000000" font-size="5px" font-weight="bold" font-family="'Helvetica Neue', Helvetica, Arial-Unicode, Arial, Sans-serif">Created by Caesar Rizky Kurniawan</text><text x="0" y="52" fill="#000000" font-size="5px" font-weight="bold" font-family="'Helvetica Neue', Helvetica, Arial-Unicode, Arial, Sans-serif">from the Noun Project</text></svg>